<svg xmlns="http://www.w3.org/2000/svg" xmlns:xlink="http://www.w3.org/1999/xlink" width="172pt" height="424pt" viewBox="0.00 0.00 172.00 423.80">
<g id="graph0" class="graph" transform="scale(1 1) rotate(0) translate(4 419.8)">
<title>graphname</title>
<polygon fill="white" stroke="none" points="-4,4 -4,-419.8 168,-419.8 168,4 -4,4"/>
<g id="clust2" class="cluster">
<title>cluster_1</title>
<polygon fill="none" stroke="black" points="8,-8 8,-407.8 156,-407.8 156,-8 8,-8"/>
<text text-anchor="middle" x="82" y="-391.2" font-family="Times,serif" font-size="14.00">src</text>
</g>
<g id="clust3" class="cluster">
<title>cluster_2</title>
<polygon fill="none" stroke="black" points="16,-174.8 16,-375 148,-375 148,-174.8 16,-174.8"/>
<text text-anchor="middle" x="82" y="-358.4" font-family="Times,serif" font-size="14.00">app</text>
</g>
<g id="clust4" class="cluster">
<title>cluster_3</title>
<polygon fill="none" stroke="black" points="24,-182.8 24,-342.2 140,-342.2 140,-182.8 24,-182.8"/>
<text text-anchor="middle" x="82" y="-325.6" font-family="Times,serif" font-size="14.00">api</text>
</g>
<g id="clust5" class="cluster">
<title>cluster_4</title>
<polygon fill="none" stroke="black" points="32,-190.8 32,-309.4 132,-309.4 132,-190.8 32,-190.8"/>
<text text-anchor="middle" x="82" y="-292.8" font-family="Times,serif" font-size="14.00">auth</text>
</g>
<g id="clust6" class="cluster">
<title>cluster_5</title>
<polygon fill="none" stroke="black" points="40,-198.8 40,-276.6 124,-276.6 124,-198.8 40,-198.8"/>
<text text-anchor="middle" x="82" y="-260" font-family="Times,serif" font-size="14.00">[...nextauth]</text>
</g>
<g id="clust7" class="cluster">
<title>cluster_6</title>
<polygon fill="none" stroke="black" points="25,-16 25,-166.8 139,-166.8 139,-16 25,-16"/>
<text text-anchor="middle" x="82" y="-150.2" font-family="Times,serif" font-size="14.00">lib</text>
</g>
<!-- src/app/api/auth/[...nextauth]/route.ts -->
<g id="node1" class="node">
<title>src/app/api/auth/[...nextauth]/route.ts</title>
<polygon fill="none" stroke="black" points="53.2,-207.3 53.2,-243.3 110.8,-243.3 110.8,-207.3 53.2,-207.3"/>
<text text-anchor="middle" x="82" y="-221.1" font-family="Times,serif" font-size="14.00">route.ts</text>
</g>
<!-- src/lib/authOptions.ts -->
<g id="node2" class="node">
<title>src/lib/authOptions.ts</title>
<polygon fill="none" stroke="black" points="33.36,-97.5 33.36,-133.5 130.64,-133.5 130.64,-97.5 33.36,-97.5"/>
<text text-anchor="middle" x="82" y="-111.3" font-family="Times,serif" font-size="14.00">authOptions.ts</text>
</g>
<!-- src/app/api/auth/[...nextauth]/route.ts&#45;&gt;src/lib/authOptions.ts -->
<g id="edge1" class="edge">
<title>src/app/api/auth/[...nextauth]/route.ts-&gt;src/lib/authOptions.ts</title>
<path fill="none" stroke="#7addbf" d="M82,-206.98C82,-190.32 82,-164.83 82,-145.15"/>
<polygon fill="#7addbf" stroke="#7addbf" points="85.5,-145.29 82,-135.29 78.5,-145.29 85.5,-145.29"/>
</g>
<!-- src/lib/prisma.ts -->
<g id="node3" class="node">
<title>src/lib/prisma.ts</title>
<polygon fill="none" stroke="black" points="48.53,-24.5 48.53,-60.5 115.47,-60.5 115.47,-24.5 48.53,-24.5"/>
<text text-anchor="middle" x="82" y="-38.3" font-family="Times,serif" font-size="14.00">prisma.ts</text>
</g>
<!-- src/lib/authOptions.ts&#45;&gt;src/lib/prisma.ts -->
<g id="edge2" class="edge">
<title>src/lib/authOptions.ts-&gt;src/lib/prisma.ts</title>
<path fill="none" stroke="#9a702c" d="M82,-97.31C82,-89.73 82,-80.6 82,-72.04"/>
<polygon fill="#9a702c" stroke="#9a702c" points="85.5,-72.04 82,-62.04 78.5,-72.04 85.5,-72.04"/>
</g>
</g>
</svg>